<svg width="36" height="36" viewBox="0 0 36 36" fill="none" xmlns="http://www.w3.org/2000/svg">
<path d="M18 0C8.076 0 0 8.076 0 18C0 27.924 8.076 36 18 36C27.924 36 36 27.924 36 18C36 8.076 27.924 0 18 0ZM18 3C26.3025 3 33 9.6975 33 18C33.0037 21.5909 31.716 25.0635 29.372 27.7839C27.028 30.5043 23.784 32.2912 20.232 32.8185V22.374H24.504L25.1745 18.0345H20.232V15.6645C20.232 13.8645 20.8245 12.264 22.509 12.264H25.2165V8.478C24.741 8.4135 23.7345 8.274 21.8325 8.274C17.8605 8.274 15.5325 10.371 15.5325 15.15V18.0345H11.4495V22.374H15.5325V32.781C12.0296 32.2045 8.84586 30.4012 6.55004 27.6935C4.25422 24.9858 2.99593 21.55 3 18C3 9.6975 9.6975 3 18 3Z" fill="white"/>
</svg>
