<svg width="160" height="57" viewBox="0 0 160 57" fill="none" xmlns="http://www.w3.org/2000/svg">
<g clip-path="url(#clip0_182_16)">
<path d="M154.923 57L154.999 51.5904C155.039 48.7209 153.968 45.9525 152.021 43.8941C150.074 41.8357 147.411 40.656 144.618 40.6145L141.985 40.5753C141.287 40.5649 140.621 40.27 140.134 39.7555C139.647 39.2409 139.38 38.5488 139.39 37.8314L139.579 24.3072C139.599 22.8725 139.063 21.4883 138.09 20.4591C137.117 19.4299 135.785 18.8401 134.388 18.8193C132.992 18.7986 131.645 19.3486 130.643 20.3484C129.641 21.3483 129.067 22.716 129.047 24.1507L128.706 48.4942L122.508 39.7447C122.027 39.0656 121.399 38.5109 120.673 38.1244C119.947 37.738 119.143 37.5304 118.326 37.5183L117.183 37.5013C114.905 37.4674 113.033 39.3361 113 41.6758C112.99 42.4439 113.182 43.2016 113.557 43.8646L120.694 56.4912M134.502 10.7048L134.54 8M150.073 27.1686L152.707 27.2077M146.714 14.5197L148.602 12.635" stroke="#3400A1" stroke-width="6" stroke-linecap="round" stroke-linejoin="round"/>
<path d="M22 14.4662H8.79108V19.0944H20.8398V26.5606H8.79108V38H0V7H22V14.4662Z" fill="#3400A1"/>
<path d="M33.035 15.2151V38H24.0613V15.2151H33.035ZM28.5 13.4863C26.8275 13.4863 25.4926 13.0283 24.4955 12.1121C23.4985 11.1665 23 10.0434 23 8.74316C23 7.44287 23.4824 6.33464 24.4473 5.41851C25.4444 4.47284 26.7953 4 28.5 4C30.2047 4 31.5395 4.47284 32.5044 5.41851C33.5014 6.33464 34 7.44287 34 8.74316C34 10.0434 33.5014 11.1665 32.5044 12.1121C31.5395 13.0283 30.2047 13.4863 28.5 13.4863Z" fill="#3400A1"/>
<path d="M37 38V15.309H45.4088L45.0906 19.5912C46.0602 18.1491 47.242 17.0307 48.6359 16.2361C50.0601 15.412 51.6358 15 53.363 15C56.2417 15 58.4083 15.9418 59.8628 17.8253C61.3173 19.6795 62.0294 22.4312 61.9991 26.0806L61.9082 38H53.4539L53.5448 26.5221C53.5448 23.8733 52.6509 22.5489 50.8631 22.5489C50.1359 22.5489 49.4541 22.7844 48.8177 23.2553C48.1814 23.6967 47.6208 24.4914 47.136 25.6392C46.6511 26.7575 46.2573 28.3321 45.9542 30.3628C45.6512 32.364 45.4694 34.9098 45.4088 38H37Z" fill="#3400A1"/>
<path d="M90 5V38.502H81.7115L81.9355 35.1971C80.4122 37.7324 78.0671 39 74.9014 39C71.8843 39 69.4803 38.004 67.6882 36.012C65.8961 34.02 65 31.2885 65 27.8176C65 25.2219 65.5376 22.9583 66.6129 21.0266C67.7176 19.095 69.1667 17.601 70.9588 16.5446C72.7509 15.4581 74.6774 14.9148 76.7384 14.9148C78.7391 14.9148 80.3968 15.3826 81.7115 16.3182L81.6667 15.2317V5H90ZM78.0376 22.1585C76.6635 22.1585 75.5735 22.6867 74.767 23.743C73.9606 24.7692 73.5574 26.0369 73.5574 27.5459C73.5574 28.9041 73.871 29.9454 74.4982 30.6698C75.1255 31.3941 75.9767 31.7563 77.052 31.7563C78.2764 31.7563 79.3369 31.2433 80.233 30.217C81.1585 29.1908 81.6219 27.8478 81.6219 26.1877C81.6219 24.9503 81.2929 23.9694 80.6362 23.245C80.009 22.5206 79.1423 22.1585 78.0376 22.1585Z" fill="#3400A1"/>
<path d="M115.999 0H124.908L124.999 17.2649C125.029 20.1646 124.424 22.724 123.181 24.9431C121.939 27.1623 120.196 28.8932 117.954 30.1359C115.712 31.3786 113.106 32 110.136 32C105.288 32 101.545 30.8164 98.909 28.4494C96.3032 26.0823 95 22.5761 95 17.9307V0H104.091V17.4868C104.091 19.8835 104.652 21.5997 105.772 22.6352C106.924 23.6708 108.394 24.1886 110.181 24.1886C112.06 24.1886 113.515 23.6264 114.545 22.5021C115.606 21.3777 116.121 19.5284 116.09 16.9542L115.999 0Z" fill="#3400A1"/>
</g>
<defs>
<clipPath id="clip0_182_16">
<rect width="160" height="57" fill="white"/>
</clipPath>
</defs>
</svg>
