<svg width="160" height="57" viewBox="0 0 160 57" fill="none" xmlns="http://www.w3.org/2000/svg">
<g clip-path="url(#clip0_19_135)">
<path d="M154.923 57L154.999 51.5904C155.039 48.7209 153.968 45.9525 152.021 43.8941C150.074 41.8357 147.411 40.656 144.618 40.6145L141.985 40.5753C141.287 40.5649 140.621 40.27 140.134 39.7555C139.647 39.2409 139.38 38.5488 139.39 37.8314L139.579 24.3072C139.599 22.8725 139.063 21.4883 138.09 20.4591C137.117 19.4299 135.785 18.8401 134.388 18.8193C132.992 18.7986 131.645 19.3486 130.643 20.3484C129.641 21.3483 129.067 22.716 129.047 24.1507L128.706 48.4942L122.508 39.7447C122.027 39.0656 121.399 38.5109 120.673 38.1244C119.947 37.738 119.143 37.5304 118.326 37.5183L117.183 37.5013C114.905 37.4674 113.033 39.3361 113 41.6758C112.99 42.4439 113.182 43.2016 113.557 43.8646L120.694 56.4912M134.502 10.7048L134.54 8M150.073 27.1686L152.707 27.2077M146.714 14.5197L148.602 12.635" stroke="#3400A1" stroke-width="6" stroke-linecap="round" stroke-linejoin="round"/>
<path d="M22 14.4662H8.79108V19.0944H20.8398V26.5606H8.79108V38H0V7H22V14.4662Z" fill="#3400A1"/>
<path d="M33.035 15.2151V38H24.0613V15.2151H33.035ZM28.5 13.4863C26.8275 13.4863 25.4926 13.0283 24.4955 12.1121C23.4985 11.1665 23 10.0434 23 8.74316C23 7.44287 23.4824 6.33464 24.4473 5.41851C25.4444 4.47284 26.7953 4 28.5 4C30.2047 4 31.5395 4.47284 32.5044 5.41851C33.5014 6.33464 34 7.44287 34 8.74316C34 10.0434 33.5014 11.1665 32.5044 12.1121C31.5395 13.0283 30.2047 13.4863 28.5 13.4863Z" fill="#3400A1"/>
<path d="M37 38V15.309H45.4088L45.0906 19.5912C46.0602 18.1491 47.242 17.0307 48.6359 16.2361C50.0601 15.412 51.6358 15 53.363 15C56.2417 15 58.4083 15.9418 59.8628 17.8253C61.3173 19.6795 62.0294 22.4312 61.9991 26.0806L61.9082 38H53.4539L53.5448 26.5221C53.5448 23.8733 52.6509 22.5489 50.8631 22.5489C50.1359 22.5489 49.4541 22.7844 48.8177 23.2553C48.1814 23.6967 47.6208 24.4914 47.136 25.6392C46.6511 26.7575 46.2573 28.3321 45.9542 30.3628C45.6512 32.364 45.4694 34.9098 45.4088 38H37Z" fill="#3400A1"/>
<path d="M90 5V38.502H81.7115L81.9355 35.1971C80.4122 37.7324 78.0671 39 74.9014 39C71.8843 39 69.4803 38.004 67.6882 36.012C65.8961 34.02 65 31.2885 65 27.8176C65 25.2219 65.5376 22.9583 66.6129 21.0266C67.7176 19.095 69.1667 17.601 70.9588 16.5446C72.7509 15.4581 74.6774 14.9148 76.7384 14.9148C78.7391 14.9148 80.3968 15.3826 81.7115 16.3182L81.6667 15.2317V5H90ZM78.0376 22.1585C76.6635 22.1585 75.5735 22.6867 74.767 23.743C73.9606 24.7692 73.5574 26.0369 73.5574 27.5459C73.5574 28.9041 73.871 29.9454 74.4982 30.6698C75.1255 31.3941 75.9767 31.7563 77.052 31.7563C78.2764 31.7563 79.3369 31.2433 80.233 30.217C81.1585 29.1908 81.6219 27.8478 81.6219 26.1877C81.6219 24.9503 81.2929 23.9694 80.6362 23.245C80.009 22.5206 79.1423 22.1585 78.0376 22.1585Z" fill="#3400A1"/>
<path d="M115.999 0H124.908L124.999 17.2649C125.029 20.1646 124.424 22.724 123.181 24.9431C121.939 27.1623 120.196 28.8932 117.954 30.1359C115.712 31.3786 113.106 32 110.136 32C105.288 32 101.545 30.8164 98.909 28.4494C96.3032 26.0823 95 22.5761 95 17.9307V0H104.091V17.4868C104.091 19.8835 104.652 21.5997 105.772 22.6352C106.924 23.6708 108.394 24.1886 110.181 24.1886C112.06 24.1886 113.515 23.6264 114.545 22.5021C115.606 21.3777 116.121 19.5284 116.09 16.9542L115.999 0Z" fill="#3400A1"/>
</g>
<path d="M0.924 54V52.98C1.86 52.268 2.604 51.612 3.156 51.012C3.716 50.404 4.116 49.848 4.356 49.344C4.604 48.84 4.728 48.384 4.728 47.976C4.728 47.576 4.612 47.264 4.38 47.04C4.156 46.816 3.852 46.704 3.468 46.704C3.036 46.704 2.676 46.824 2.388 47.064C2.108 47.304 1.896 47.64 1.752 48.072L0.636 47.484C0.828 46.86 1.188 46.352 1.716 45.96C2.244 45.56 2.876 45.36 3.612 45.36C4.14 45.36 4.6 45.46 4.992 45.66C5.384 45.86 5.688 46.144 5.904 46.512C6.128 46.88 6.24 47.316 6.24 47.82C6.24 48.596 5.984 49.388 5.472 50.196C4.96 51.004 4.092 51.864 2.868 52.776H6.456V54H0.924ZM10.8073 54.108C9.79931 54.116 9.02731 53.776 8.49131 53.088C7.95531 52.392 7.68731 51.328 7.68731 49.896C7.68731 48.992 7.81931 48.2 8.08331 47.52C8.34731 46.84 8.71931 46.312 9.19931 45.936C9.68731 45.552 10.2673 45.36 10.9393 45.36C11.8673 45.36 12.5913 45.72 13.1113 46.44C13.6393 47.16 13.9033 48.204 13.9033 49.572C13.9033 50.476 13.7753 51.268 13.5193 51.948C13.2713 52.628 12.9153 53.16 12.4513 53.544C11.9873 53.92 11.4393 54.108 10.8073 54.108ZM10.7713 52.776C11.2833 52.776 11.6793 52.504 11.9593 51.96C12.2473 51.416 12.3913 50.62 12.3913 49.572C12.3913 48.628 12.2633 47.912 12.0073 47.424C11.7513 46.928 11.3833 46.68 10.9033 46.68C10.3753 46.68 9.95931 46.96 9.65531 47.52C9.35931 48.08 9.21131 48.864 9.21131 49.872C9.21131 50.856 9.33931 51.588 9.59531 52.068C9.85931 52.54 10.2513 52.776 10.7713 52.776ZM15.3146 54V52.98C16.2506 52.268 16.9946 51.612 17.5466 51.012C18.1066 50.404 18.5066 49.848 18.7466 49.344C18.9946 48.84 19.1186 48.384 19.1186 47.976C19.1186 47.576 19.0026 47.264 18.7706 47.04C18.5466 46.816 18.2426 46.704 17.8586 46.704C17.4266 46.704 17.0666 46.824 16.7786 47.064C16.4986 47.304 16.2866 47.64 16.1426 48.072L15.0266 47.484C15.2186 46.86 15.5786 46.352 16.1066 45.96C16.6346 45.56 17.2666 45.36 18.0026 45.36C18.5306 45.36 18.9906 45.46 19.3826 45.66C19.7746 45.86 20.0786 46.144 20.2946 46.512C20.5186 46.88 20.6306 47.316 20.6306 47.82C20.6306 48.596 20.3746 49.388 19.8626 50.196C19.3506 51.004 18.4826 51.864 17.2586 52.776H20.8466V54H15.3146ZM24.6819 54.108C24.2659 54.108 23.8379 54.06 23.3979 53.964C22.9579 53.868 22.6019 53.724 22.3299 53.532L22.7139 52.224C22.9779 52.392 23.2819 52.524 23.6259 52.62C23.9699 52.716 24.3539 52.764 24.7779 52.764C25.3219 52.764 25.7419 52.656 26.0379 52.44C26.3419 52.216 26.4939 51.904 26.4939 51.504C26.4939 51.096 26.3419 50.792 26.0379 50.592C25.7419 50.392 25.3339 50.292 24.8139 50.292H24.2979V49.068H24.6819C25.2419 49.068 25.6539 48.952 25.9179 48.72C26.1899 48.48 26.3259 48.168 26.3259 47.784C26.3259 47.464 26.2139 47.204 25.9899 47.004C25.7739 46.804 25.4619 46.704 25.0539 46.704C24.6299 46.704 24.2739 46.824 23.9859 47.064C23.6979 47.304 23.4819 47.64 23.3379 48.072L22.2219 47.484C22.4139 46.86 22.7739 46.352 23.3019 45.96C23.8299 45.56 24.4619 45.36 25.1979 45.36C25.7419 45.36 26.2099 45.456 26.6019 45.648C26.9939 45.84 27.2939 46.108 27.5019 46.452C27.7179 46.796 27.8259 47.192 27.8259 47.64C27.8259 48.072 27.7099 48.468 27.4779 48.828C27.2459 49.18 26.9099 49.44 26.4699 49.608C26.9579 49.744 27.3339 49.98 27.5979 50.316C27.8699 50.644 28.0059 51.06 28.0059 51.564C28.0059 52.068 27.8699 52.512 27.5979 52.896C27.3259 53.28 26.9419 53.58 26.4459 53.796C25.9499 54.004 25.3619 54.108 24.6819 54.108ZM36.6552 54.132C36.0312 54.132 35.4512 54.024 34.9152 53.808C34.3872 53.592 33.9192 53.288 33.5112 52.896C33.1112 52.504 32.7992 52.044 32.5752 51.516C32.3512 50.988 32.2392 50.42 32.2392 49.812C32.2392 49.196 32.3512 48.628 32.5752 48.108C32.7992 47.58 33.1112 47.12 33.5112 46.728C33.9112 46.336 34.3792 46.032 34.9152 45.816C35.4512 45.6 36.0312 45.492 36.6552 45.492C37.2712 45.492 37.8432 45.6 38.3712 45.816C38.8992 46.032 39.3632 46.336 39.7632 46.728C40.1632 47.12 40.4752 47.58 40.6992 48.108C40.9232 48.628 41.0352 49.196 41.0352 49.812C41.0352 50.42 40.9232 50.988 40.6992 51.516C40.4752 52.044 40.1632 52.504 39.7632 52.896C39.3632 53.288 38.8992 53.592 38.3712 53.808C37.8432 54.024 37.2712 54.132 36.6552 54.132ZM36.6552 53.544C37.1752 53.544 37.6592 53.448 38.1072 53.256C38.5552 53.064 38.9472 52.8 39.2832 52.464C39.6272 52.128 39.8952 51.732 40.0872 51.276C40.2792 50.82 40.3752 50.328 40.3752 49.8C40.3752 49.272 40.2792 48.784 40.0872 48.336C39.8952 47.88 39.6272 47.484 39.2832 47.148C38.9472 46.812 38.5552 46.552 38.1072 46.368C37.6592 46.176 37.1752 46.08 36.6552 46.08C36.1272 46.08 35.6352 46.176 35.1792 46.368C34.7312 46.552 34.3352 46.812 33.9912 47.148C33.6552 47.484 33.3912 47.88 33.1992 48.336C33.0152 48.784 32.9232 49.272 32.9232 49.8C32.9232 50.328 33.0152 50.82 33.1992 51.276C33.3912 51.732 33.6552 52.128 33.9912 52.464C34.3352 52.8 34.7312 53.064 35.1792 53.256C35.6352 53.448 36.1272 53.544 36.6552 53.544ZM38.7072 51.216C38.5072 51.536 38.2312 51.784 37.8792 51.96C37.5352 52.128 37.1512 52.212 36.7272 52.212C35.9512 52.212 35.3432 52.008 34.9032 51.6C34.4712 51.184 34.2552 50.616 34.2552 49.896C34.2552 49.4 34.3632 48.964 34.5792 48.588C34.7952 48.212 35.0952 47.92 35.4792 47.712C35.8712 47.496 36.3192 47.388 36.8232 47.388C37.2632 47.388 37.6312 47.468 37.9272 47.628C38.2312 47.788 38.4952 48.032 38.7192 48.36L37.7832 48.984C37.6792 48.784 37.5352 48.64 37.3512 48.552C37.1752 48.464 36.9952 48.42 36.8112 48.42C36.4272 48.42 36.1112 48.556 35.8632 48.828C35.6232 49.092 35.5032 49.44 35.5032 49.872C35.5032 50.288 35.6112 50.612 35.8272 50.844C36.0432 51.076 36.3512 51.192 36.7512 51.192C36.9352 51.192 37.1232 51.14 37.3152 51.036C37.5152 50.932 37.6792 50.772 37.8072 50.556L38.7072 51.216Z" fill="#3400A1"/>
<defs>
<clipPath id="clip0_19_135">
<rect width="160" height="57" fill="white"/>
</clipPath>
</defs>
</svg>
