<svg width="44" height="44" viewBox="0 0 44 44" fill="none" xmlns="http://www.w3.org/2000/svg">
<path d="M36.4246 4.8125H7.57539C6.05 4.8125 4.8125 6.05 4.8125 7.57539V36.4246C4.8125 37.95 6.05 39.1875 7.57539 39.1875H36.4246C37.95 39.1875 39.1875 37.95 39.1875 36.4246V7.57539C39.1875 6.05 37.95 4.8125 36.4246 4.8125ZM36.4246 36.4375C17.1832 36.4332 7.5625 36.4289 7.5625 36.4246C7.5668 17.1832 7.57109 7.5625 7.57539 7.5625C26.8168 7.5668 36.4375 7.57109 36.4375 7.57539C36.4332 26.8168 36.4289 36.4375 36.4246 36.4375ZM9.90859 17.6988H15.009V34.1043H9.90859V17.6988ZM12.4609 15.4559C14.0895 15.4559 15.4172 14.1324 15.4172 12.4996C15.4172 12.1114 15.3407 11.727 15.1922 11.3683C15.0436 11.0096 14.8258 10.6837 14.5513 10.4092C14.2768 10.1347 13.9509 9.91696 13.5922 9.76839C13.2336 9.61982 12.8492 9.54336 12.4609 9.54336C12.0727 9.54336 11.6883 9.61982 11.3296 9.76839C10.971 9.91696 10.6451 10.1347 10.3706 10.4092C10.096 10.6837 9.87828 11.0096 9.72972 11.3683C9.58115 11.727 9.50469 12.1114 9.50469 12.4996C9.50039 14.1324 10.8238 15.4559 12.4609 15.4559ZM23.302 25.9875C23.302 23.8477 23.7102 21.7766 26.3613 21.7766C28.9738 21.7766 29.0125 24.2215 29.0125 26.125V34.1043H34.1086V25.1066C34.1086 20.6895 33.1547 17.2906 27.9941 17.2906C25.5148 17.2906 23.852 18.6527 23.1688 19.9418H23.1V17.6988H18.2059V34.1043H23.302V25.9875Z" fill="white"/>
</svg>
