<svg width="40" height="40" viewBox="0 0 40 40" fill="none" xmlns="http://www.w3.org/2000/svg">
<path d="M31.7503 8.18335C30.2223 6.63989 28.4023 5.41613 26.3964 4.58344C24.3905 3.75074 22.2389 3.32579 20.067 3.33335C10.967 3.33335 3.55033 10.75 3.55033 19.85C3.55033 22.7667 4.31699 25.6 5.75033 28.1L3.41699 36.6667L12.167 34.3667C14.5837 35.6833 17.3003 36.3834 20.067 36.3834C29.167 36.3834 36.5837 28.9667 36.5837 19.8667C36.5837 15.45 34.867 11.3 31.7503 8.18335ZM20.067 33.5833C17.6003 33.5833 15.1837 32.9167 13.067 31.6667L12.567 31.3667L7.36699 32.7333L8.75033 27.6667L8.41699 27.15C7.04657 24.9616 6.31889 22.4321 6.31699 19.85C6.31699 12.2833 12.4837 6.11668 20.0503 6.11668C23.717 6.11668 27.167 7.55002 29.7503 10.15C31.0295 11.4233 32.0432 12.9378 32.7326 14.6057C33.4221 16.2737 33.7737 18.0619 33.767 19.8667C33.8003 27.4333 27.6337 33.5833 20.067 33.5833ZM27.6003 23.3167C27.1837 23.1167 25.1503 22.1167 24.7837 21.9667C24.4003 21.8334 24.1337 21.7667 23.8503 22.1667C23.567 22.5834 22.7837 23.5167 22.5503 23.7833C22.317 24.0667 22.067 24.1 21.6503 23.8834C21.2337 23.6833 19.9003 23.2334 18.3337 21.8334C17.1003 20.7334 16.2837 19.3834 16.0337 18.9667C15.8003 18.55 16.0003 18.3334 16.217 18.1167C16.4003 17.9333 16.6337 17.6333 16.8337 17.4C17.0337 17.1667 17.117 16.9833 17.2503 16.7167C17.3837 16.4333 17.317 16.2 17.217 16C17.117 15.8 16.2837 13.7667 15.9503 12.9334C15.617 12.1334 15.267 12.2334 15.017 12.2167H14.217C13.9337 12.2167 13.5003 12.3167 13.117 12.7334C12.7503 13.15 11.6837 14.15 11.6837 16.1834C11.6837 18.2167 13.167 20.1834 13.367 20.45C13.567 20.7334 16.2837 24.9 20.417 26.6833C21.4003 27.1167 22.167 27.3667 22.767 27.55C23.7503 27.8667 24.6503 27.8167 25.367 27.7167C26.167 27.6 27.817 26.7167 28.1503 25.75C28.5003 24.7833 28.5003 23.9667 28.3837 23.7833C28.267 23.6 28.017 23.5167 27.6003 23.3167Z" fill="#3400A1"/>
</svg>
