<svg width="34" height="34" viewBox="0 0 34 34" fill="none" xmlns="http://www.w3.org/2000/svg">
<path d="M28.7493 5.18311C27.2214 3.63965 25.4013 2.41589 23.3954 1.58319C21.3895 0.750498 19.2379 0.325541 17.066 0.333107C7.96602 0.333107 0.549349 7.74977 0.549349 16.8498C0.549349 19.7664 1.31602 22.5998 2.74935 25.0998L0.416016 33.6664L9.16602 31.3664C11.5827 32.6831 14.2993 33.3831 17.066 33.3831C26.166 33.3831 33.5827 25.9664 33.5827 16.8664C33.5827 12.4498 31.866 8.29977 28.7493 5.18311ZM17.066 30.5831C14.5993 30.5831 12.1827 29.9164 10.066 28.6664L9.56602 28.3664L4.36602 29.7331L5.74935 24.6664L5.41602 24.1498C4.04559 21.9614 3.31792 19.4318 3.31602 16.8498C3.31602 9.28311 9.48268 3.11644 17.0493 3.11644C20.716 3.11644 24.166 4.54977 26.7493 7.14977C28.0285 8.42305 29.0422 9.93754 29.7317 11.6055C30.4212 13.2734 30.7727 15.0616 30.766 16.8664C30.7994 24.4331 24.6327 30.5831 17.066 30.5831ZM24.5993 20.3164C24.1827 20.1164 22.1493 19.1164 21.7827 18.9664C21.3993 18.8331 21.1327 18.7664 20.8493 19.1664C20.566 19.5831 19.7827 20.5164 19.5493 20.7831C19.316 21.0664 19.066 21.0998 18.6493 20.8831C18.2327 20.6831 16.8993 20.2331 15.3327 18.8331C14.0993 17.7331 13.2827 16.3831 13.0327 15.9664C12.7993 15.5498 12.9993 15.3331 13.216 15.1164C13.3993 14.9331 13.6327 14.6331 13.8327 14.3998C14.0327 14.1664 14.116 13.9831 14.2493 13.7164C14.3827 13.4331 14.316 13.1998 14.216 12.9998C14.116 12.7998 13.2827 10.7664 12.9493 9.93311C12.616 9.13311 12.266 9.23311 12.016 9.21644H11.216C10.9327 9.21644 10.4993 9.31644 10.116 9.73311C9.74935 10.1498 8.68268 11.1498 8.68268 13.1831C8.68268 15.2164 10.166 17.1831 10.366 17.4498C10.566 17.7331 13.2827 21.8998 17.416 23.6831C18.3993 24.1164 19.166 24.3664 19.766 24.5498C20.7493 24.8664 21.6493 24.8164 22.366 24.7164C23.166 24.5998 24.816 23.7164 25.1493 22.7498C25.4993 21.7831 25.4994 20.9664 25.3827 20.7831C25.266 20.5998 25.016 20.5164 24.5993 20.3164Z" fill="white"/>
</svg>
