<svg width="19" height="20" viewBox="0 0 19 20" fill="none" xmlns="http://www.w3.org/2000/svg">
<path d="M15.25 20C14.4514 20 13.7726 19.7083 13.2135 19.125C12.6545 18.5417 12.375 17.8333 12.375 17C12.375 16.8833 12.383 16.7623 12.399 16.637C12.4149 16.5117 12.4389 16.3993 12.4708 16.3L5.71458 12.2C5.44306 12.45 5.13958 12.646 4.80417 12.788C4.46875 12.93 4.11736 13.0007 3.75 13C2.95139 13 2.27257 12.7083 1.71354 12.125C1.15451 11.5417 0.875 10.8333 0.875 10C0.875 9.16667 1.15451 8.45833 1.71354 7.875C2.27257 7.29167 2.95139 7 3.75 7C4.11736 7 4.46875 7.071 4.80417 7.213C5.13958 7.355 5.44306 7.55067 5.71458 7.8L12.4708 3.7C12.4389 3.6 12.4149 3.48767 12.399 3.363C12.383 3.23833 12.375 3.11733 12.375 3C12.375 2.16667 12.6545 1.45833 13.2135 0.875C13.7726 0.291667 14.4514 0 15.25 0C16.0486 0 16.7274 0.291667 17.2865 0.875C17.8455 1.45833 18.125 2.16667 18.125 3C18.125 3.83333 17.8455 4.54167 17.2865 5.125C16.7274 5.70833 16.0486 6 15.25 6C14.8826 6 14.5312 5.92933 14.1958 5.788C13.8604 5.64667 13.5569 5.45067 13.2854 5.2L6.52917 9.3C6.56111 9.4 6.58507 9.51267 6.60104 9.638C6.61701 9.76333 6.625 9.884 6.625 10C6.625 10.1167 6.61701 10.2377 6.60104 10.363C6.58507 10.4883 6.56111 10.6007 6.52917 10.7L13.2854 14.8C13.5569 14.55 13.8604 14.3543 14.1958 14.213C14.5312 14.0717 14.8826 14.0007 15.25 14C16.0486 14 16.7274 14.2917 17.2865 14.875C17.8455 15.4583 18.125 16.1667 18.125 17C18.125 17.8333 17.8455 18.5417 17.2865 19.125C16.7274 19.7083 16.0486 20 15.25 20Z" fill="#3400A1"/>
</svg>
